<svg id="Layer_1" data-name="Layer 1" xmlns="http://www.w3.org/2000/svg" viewBox="0 0 1920 1080"><title>Artboard 1</title><g opacity="0.2"><path d="M257.58,187.91c6.77,2.59,3.92,10.06,10.69,12.65s9.63-4.89,16.4-2.31,3.92,10.06,10.69,12.64,9.63-4.88,16.41-2.3,3.92,10.06,10.7,12.65" fill="none" stroke="#111" stroke-linecap="round" stroke-linejoin="round" stroke-width="14"/></g><g opacity="0.2"><path d="M273,147.43c6.77,2.58,3.92,10.06,10.69,12.64s9.62-4.89,16.4-2.3,3.92,10,10.69,12.64,9.63-4.89,16.41-2.3,3.92,10.06,10.7,12.64" fill="none" stroke="#111" stroke-linecap="round" stroke-linejoin="round" stroke-width="14"/></g><rect x="1242" y="82" width="72" height="72" transform="translate(33.38 431.25) rotate(-19.4)" opacity="0.2" stroke="#111" stroke-linecap="round" stroke-linejoin="round" stroke-width="14" fill="none"/><rect x="1642" y="801" width="72" height="72" transform="translate(-182.75 604.96) rotate(-19.4)" opacity="0.2" stroke="#111" stroke-linecap="round" stroke-linejoin="round" stroke-width="14" fill="none"/><polygon points="1335.62 605.49 1354.49 608.51 1342.44 623.35 1330.38 638.18 1323.56 620.32 1316.75 602.47 1335.62 605.49" fill="none" stroke="#111" stroke-linecap="round" stroke-linejoin="round" stroke-width="14" opacity="0.2"/><polygon points="292.24 515.9 318.72 561.21 266.24 561.49 213.76 561.77 239.76 516.18 265.75 470.59 292.24 515.9" fill="none" stroke="#111" stroke-linecap="round" stroke-linejoin="round" stroke-width="14" opacity="0.2"/><path d="M651.24,153.27c-9,32.3-39.7,16.87-39.7,16.87" fill="none" stroke="#111" stroke-linecap="round" stroke-linejoin="round" stroke-width="14" opacity="0.2"/></svg>