<svg xmlns="http://www.w3.org/2000/svg" viewBox="0 0 1920 1080"><title>Artboard 1 copy</title><g id="Layer_2" data-name="Layer 2"><circle cx="671.96" cy="298.99" r="21" fill="none" stroke="#111" stroke-linecap="round" stroke-linejoin="round" stroke-width="14" opacity="0.2"/><g opacity="0.2"><path d="M491,829.27c-3.5-6.31,3.5-10.19,0-16.51s-10.5-2.45-14-8.77,3.5-10.19,0-16.51-10.5-2.45-14-8.77,3.5-10.2,0-16.52" fill="none" stroke="#111" stroke-linecap="round" stroke-linejoin="round" stroke-width="14"/></g><g opacity="0.2"><path d="M465.28,843.48c-3.5-6.32,3.5-10.19,0-16.51s-10.5-2.45-14-8.77,3.5-10.19,0-16.51-10.5-2.45-14-8.78,3.5-10.19,0-16.52" fill="none" stroke="#111" stroke-linecap="round" stroke-linejoin="round" stroke-width="14"/></g><polygon points="833.29 761.48 842.93 777.98 823.82 778.08 804.71 778.19 814.18 761.58 823.64 744.98 833.29 761.48" fill="none" stroke="#111" stroke-linecap="round" stroke-linejoin="round" stroke-width="14" opacity="0.2"/><path d="M1387.24,184.27c-9,32.3-39.7,16.87-39.7,16.87" fill="none" stroke="#111" stroke-linecap="round" stroke-linejoin="round" stroke-width="14" opacity="0.2"/><path d="M1697.74,1004.77c-9,32.3-39.7,16.87-39.7,16.87" fill="none" stroke="#111" stroke-linecap="round" stroke-linejoin="round" stroke-width="14" opacity="0.2"/></g></svg>