<svg xmlns="http://www.w3.org/2000/svg" viewBox="0 0 1920 1080"><title>Artboard 1 copy 2</title><g id="Layer_3" data-name="Layer 3"><circle cx="109.96" cy="988.97" r="54.04" fill="none" stroke="#111" stroke-linecap="round" stroke-linejoin="round" stroke-width="14" opacity="0.2"/><circle cx="1626.92" cy="84.99" r="21" fill="none" stroke="#111" stroke-linecap="round" stroke-linejoin="round" stroke-width="14" opacity="0.2"/><g opacity="0.2"><path d="M1034.49,992c7.23,0,7.23,8,14.45,8s7.22-8,14.45-8,7.22,8,14.44,8,7.23-8,14.46-8,7.23,8,14.45,8" fill="none" stroke="#111" stroke-linecap="round" stroke-linejoin="round" stroke-width="14"/></g><g opacity="0.2"><path d="M1034.49,962.67c7.23,0,7.23,8,14.45,8s7.22-8,14.45-8,7.22,8,14.44,8,7.23-8,14.46-8,7.23,8,14.45,8" fill="none" stroke="#111" stroke-linecap="round" stroke-linejoin="round" stroke-width="14"/></g><rect x="1736.07" y="594.2" width="29.86" height="29.6" transform="translate(-102.87 616.26) rotate(-19.4)" opacity="0.2" stroke="#111" stroke-linecap="round" stroke-linejoin="round" stroke-width="14" fill="none"/><circle cx="1061.88" cy="255.6" r="22.13" fill="#111" opacity="0.2"/><circle cx="409.88" cy="328.6" r="8.94" fill="#111" opacity="0.2"/></g></svg>