<svg xmlns="http://www.w3.org/2000/svg" viewBox="0 0 775.38 835.69"><title>rocket</title><g id="Layer_2" data-name="Layer 2"><g id="Layer_1-2" data-name="Layer 1"><path d="M493.41,524.17c61.52,71.61,79,188,18.61,259a187.12,187.12,0,0,1-53,43L354.34,629.88S481.58,536.14,493.41,524.17ZM290.32,354.75c-80-42.53-189.87-38-247.51,29.82A187.19,187.19,0,0,0,9,443.8l200.24,68.46S279.28,374.17,290.32,354.75ZM322.5,645.27c38-10.82,261.09-183.12,354.61-293.21,59.41-69.93,82.21-197,90.94-280.45A58.4,58.4,0,0,0,694.11,9.22C612.58,32,489.38,76.11,429.79,146.27,336.27,256.36,204.44,501.9,199.9,541.12c26.79,57.81,52.51,63.31,52.51,63.31S257.41,627.79,322.5,645.27ZM199.9,541.12S243,620,322.5,645.27M218.92,495.42s55.1,89,145.61,123.69M563.05,55.75S605,188.36,743.64,209.16M573.72,338.26a73.13,73.13,0,1,0-103.08,8.39A73.13,73.13,0,0,0,573.72,338.26ZM290,672.24c30.92-36.39,17.7-20.83-37.6-67.81s-56.11-46-73-26.14-43,109.52-33.87,151.94C193.71,730.84,273.11,692.13,290,672.24Zm0,0c30.92-36.39,12.86-15.67-37.6-67.81-50.71-52.39-56.11-46-73-26.14" fill="none" stroke="#111" stroke-miterlimit="10" stroke-width="14" opacity="0.2"/></g></g></svg>