<svg id="Layer_1" data-name="Layer 1" xmlns="http://www.w3.org/2000/svg" viewBox="0 0 775.38 835.69"><defs><style>.cls-1{fill:none;stroke:#111;stroke-miterlimit:10;stroke-width:14px;opacity:0.2;}</style></defs><title>rocket</title><path class="cls-1" d="M1503.77,640.28c61.51,71.61,79,188,18.61,259a187.16,187.16,0,0,1-53,43L1364.69,746S1491.94,652.25,1503.77,640.28ZM1300.68,470.86c-80-42.53-189.88-38-247.52,29.82a187.19,187.19,0,0,0-33.86,59.23l200.25,68.47S1289.63,490.28,1300.68,470.86Zm32.18,290.52c38-10.82,261.09-183.12,354.61-293.21,59.4-69.93,82.2-197,90.93-280.45a58.4,58.4,0,0,0-73.94-62.39c-81.53,22.78-204.72,66.9-264.32,137.05C1346.62,372.47,1214.79,618,1210.26,657.24c26.79,57.8,52.5,63.3,52.5,63.3S1267.76,743.9,1332.86,761.38Zm-122.6-104.14s43.1,78.82,122.6,104.14M1229.28,611.53s55.1,89,145.6,123.69M1573.4,171.86S1615.34,304.47,1754,325.27M1584.07,454.38A73.13,73.13,0,1,0,1481,462.76,73.13,73.13,0,0,0,1584.07,454.38Zm-283.7,334c30.91-36.39,17.69-20.83-37.61-67.81s-56.1-46-73-26.14-43,109.52-33.86,151.94C1204.07,847,1283.47,808.24,1300.37,788.35Zm0,0c30.91-36.39,12.85-15.66-37.61-67.81-50.7-52.39-56.1-46-73-26.14" transform="translate(-1010.35 -116.11)"/></svg>